HIERARCHY
ROOT Hips
{
	OFFSET -3.958830 18.904000 13.208200
	CHANNELS 6 Xposition Yposition Zposition Zrotation Yrotation Xrotation 
	JOINT LHipJoint
	{
		OFFSET 0.000000 0.000000 0.000000
		CHANNELS 3 Zrotation Yrotation Xrotation
		JOINT LeftUpLeg
		{
			OFFSET 1.800000 -1.400000 0.085000
			CHANNELS 3 Zrotation Yrotation Xrotation
			JOINT LeftLeg
			{
				OFFSET 2.215000 -6.000000 0.000000
				CHANNELS 3 Zrotation Yrotation Xrotation
				JOINT LeftFoot
				{
					OFFSET 2.500000 -6.900000 0.000000
					CHANNELS 3 Zrotation Yrotation Xrotation
					JOINT LeftToeBase
					{
						OFFSET 0.200000 -0.500000 1.950000
						CHANNELS 3 Zrotation Yrotation Xrotation
						End Site
						{
							OFFSET 0.000000 0.000000 0.000000
						}
					}
				}
			}
		}
	}
	JOINT RHipJoint
	{
		OFFSET 0.000000 0.000000 0.000000
		CHANNELS 3 Zrotation Yrotation Xrotation
		JOINT RightUpLeg
		{
			OFFSET -1.800000 -1.400000 0.085000
			CHANNELS 3 Zrotation Yrotation Xrotation
			JOINT RightLeg
			{
				OFFSET -2.215000 -6.000000 0.000000
				CHANNELS 3 Zrotation Yrotation Xrotation
				JOINT RightFoot
				{
					OFFSET -2.500000 -6.900000 0.000000
					CHANNELS 3 Zrotation Yrotation Xrotation
					JOINT RightToeBase
					{
						OFFSET -0.200000 -0.500000 1.950000
						CHANNELS 3 Zrotation Yrotation Xrotation
						End Site
						{
							OFFSET 0.000000 0.000000 0.000000
						}
					}
				}
			}
		}
	}
	JOINT LowerBack
	{
		OFFSET 0.000000 0.000000 0.000000
		CHANNELS 3 Zrotation Yrotation Xrotation
		JOINT Spine
		{
			OFFSET -0.087000 1.940000 -0.288900
			CHANNELS 3 Zrotation Yrotation Xrotation
			JOINT Spine1
			{
				OFFSET 0.000000 1.950000 0.060000
				CHANNELS 3 Zrotation Yrotation Xrotation
				JOINT Neck
				{
					OFFSET 0.000000 0.000000 0.000000
					CHANNELS 3 Zrotation Yrotation Xrotation
					JOINT Neck1
					{
						OFFSET 0.000000 1.600000 0.340000
						CHANNELS 3 Zrotation Yrotation Xrotation
						JOINT Head
						{
							OFFSET 0.000000 1.667000 -0.240000
							CHANNELS 3 Zrotation Yrotation Xrotation
							End Site
							{
								OFFSET 0.000000 0.000000 0.000000
							}
						}
					}
				}
				JOINT LeftShoulder
				{
					OFFSET 0.000000 0.000000 0.000000
					CHANNELS 3 Zrotation Yrotation Xrotation
					JOINT LeftArm
					{
						OFFSET 2.700000 1.550000 -0.730000
						CHANNELS 3 Zrotation Yrotation Xrotation
						JOINT LeftForeArm
						{
							OFFSET 5.450000 0.000000 0.000000
							CHANNELS 3 Zrotation Yrotation Xrotation
							JOINT LeftHand
							{
								OFFSET 3.450000 0.000000 0.000000
								CHANNELS 3 Zrotation Yrotation Xrotation
								JOINT LeftHandIndex1
								{
									OFFSET 0.750000 0.000000 0.000000
									CHANNELS 3 Zrotation Yrotation Xrotation
									End Site
									{
										OFFSET 0.000000 0.000000 0.000000
									}
								}
							}
						}
					}
				}
				JOINT RightShoulder
				{
					OFFSET 0.000000 0.000000 0.000000
					CHANNELS 3 Zrotation Yrotation Xrotation
					JOINT RightArm
					{
						OFFSET -2.700000 1.550000 -0.730000
						CHANNELS 3 Zrotation Yrotation Xrotation
						JOINT RightForeArm
						{
							OFFSET -5.450000 0.000000 0.000000
							CHANNELS 3 Zrotation Yrotation Xrotation
							JOINT RightHand
							{
								OFFSET -3.450000 0.000000 0.000000
								CHANNELS 3 Zrotation Yrotation Xrotation
								JOINT RightHandIndex1
								{
									OFFSET -0.750000 0.000000 0.000000
									CHANNELS 3 Zrotation Yrotation Xrotation
									End Site
									{
										OFFSET 0.000000 0.000000 0.000000
									}
								}
							}
						}
					}
				}
			}
		}
	}
}
MOTION
Frames: 9
Frame Time: 0.016667
-0.503290 17.363060 -1.254490 -1.597423 -1.171291 -24.108783 -15.216049 13.155181 2.922043 5.064354 2.623216 14.835384 -6.343167 7.720782 13.096152 0.141026 6.142402 2.528054 0.687170 0.521140 0.567190 18.321752 -11.040216 2.548273 -8.184860 -1.853570 11.715355 9.636685 -9.231229 20.396465 -1.070641 -6.228290 2.190489 0.374340 -0.040400 0.220280 -3.589977 -1.475307 -7.010600 9.044426 0.055884 16.539148 -4.012592 0.504063 32.250669 3.046153 -3.473926 -10.769212 -9.608724 3.697818 46.355007 -0.968880 0.436350 -20.608030 -16.946002 -26.221939 6.785393 -13.824565 -24.546681 -8.701491 123.948386 -13.313284 -42.697903 -3.658041 3.001831 0.510930 -0.076400 0.205970 0.108230 12.403321 29.474913 10.505513 19.400667 18.885373 -16.683166 -126.512284 8.538138 -43.851403 1.912751 -2.141951 -0.052780 0.237020 -0.126780 -0.201150 
-0.499470 17.309390 -1.222110 -1.652569 -1.970482 -24.893412 -15.102381 12.991126 2.884361 5.387295 2.672583 15.875837 -6.795739 8.069307 13.929414 0.107098 6.354270 2.455150 0.694510 0.512020 0.571730 18.444705 -11.130158 2.591630 -8.414273 -2.107002 13.457180 9.242428 -9.162845 19.604515 -1.125866 -6.316766 2.159217 0.392490 -0.030640 0.198860 -3.922220 -1.098998 -6.960517 10.850373 -0.055784 15.520328 -4.997831 0.418742 33.592483 3.103412 -4.375502 -11.495772 -11.829873 4.191376 48.082175 0.059420 -0.606170 -22.039530 -18.566971 -29.274016 7.317300 -12.771281 -24.358751 -10.029716 125.419464 -10.468852 -39.970143 -3.642924 2.979910 0.578280 -0.105630 0.214890 0.107440 14.176970 32.722692 11.689234 17.207334 17.952414 -18.220842 -128.363699 6.327607 -42.347490 1.914951 -2.140684 -0.099290 0.300650 -0.104880 -0.215910 
-0.508670 17.258490 -1.200150 -1.191499 -2.383971 -25.324878 -15.087496 12.967424 2.875258 5.303956 2.762490 16.222752 -7.069125 8.384056 15.030402 0.139461 6.466429 2.397049 0.698390 0.518630 0.575910 18.458486 -11.142629 2.614822 -8.776187 -2.215407 14.652894 8.665626 -8.972062 18.769088 -1.155783 -6.318705 2.155702 0.381960 -0.057300 0.202170 -3.959917 -1.063061 -6.955492 10.753064 0.109488 14.957774 -5.297612 0.751713 34.277675 3.200512 -4.661399 -12.381582 -12.880199 4.729323 50.014920 0.442610 -0.748670 -22.677210 -20.095460 -31.424514 7.800490 -11.809482 -23.253716 -11.256869 126.305239 -9.044966 -38.589639 -3.631472 3.000520 0.602560 -0.132930 0.242930 0.096930 15.636872 35.074847 12.902399 15.998282 16.729403 -19.144961 -129.655591 5.623603 -42.970130 1.948431 -2.130720 -0.084200 0.296220 -0.101220 -0.215810 
-0.509710 17.222770 -1.191770 -1.264969 -2.537974 -25.502870 -15.031699 12.950152 2.843888 5.674784 2.655987 16.157334 -7.392054 8.693027 16.103411 0.150732 6.582494 2.352101 0.670920 0.480910 0.559390 18.506711 -11.181041 2.655529 -8.725007 -2.380506 15.340574 8.413167 -8.924449 18.330665 -1.177189 -6.320304 2.159110 0.351140 -0.052720 0.200930 -4.106395 -0.972913 -6.973163 11.571724 0.018025 14.784636 -5.790941 0.675004 34.364751 3.249496 -4.893606 -13.122736 -13.894395 5.266230 51.814418 1.439640 -1.049340 -22.977570 -21.452992 -32.738289 8.258751 -11.282919 -22.055081 -12.025502 125.892608 -9.255116 -38.541020 -3.641834 2.960649 0.640440 -0.151100 0.256500 0.085750 16.969386 36.206940 13.797426 15.218247 15.234384 -19.628190 -130.149315 6.521727 -45.188648 1.981204 -2.062152 -0.094930 0.309960 -0.079630 -0.215670 
-0.503050 17.208000 -1.193830 -1.677006 -2.781989 -25.458174 -14.937412 12.916279 2.816668 6.188998 2.445937 15.822930 -7.723284 8.910405 16.742069 0.168540 6.621771 2.332242 0.639120 0.443020 0.554650 18.586312 -11.265922 2.703595 -8.334401 -2.562554 15.413140 8.087071 -8.839558 18.174724 -1.181332 -6.277676 2.179633 0.311490 -0.063580 0.196810 -4.349019 -0.765336 -7.010415 13.069134 -0.425002 15.146666 -6.673010 0.264489 33.788099 3.454729 -5.175244 -13.413870 -14.656005 5.752225 52.728379 1.306720 -0.914340 -23.135400 -22.673024 -32.647708 8.463246 -10.822284 -20.220245 -12.452344 124.724928 -11.048748 -39.935290 -3.662536 2.904122 0.655650 -0.165620 0.266930 0.064200 17.850036 35.901346 14.201609 15.117917 14.047131 -19.336177 -129.842452 9.320343 -49.594375 2.015377 -1.953685 -0.091880 0.306250 -0.065190 -0.217930 
-0.495620 17.223650 -1.213030 -1.941860 -2.786851 -25.393136 -14.899107 12.954390 2.823587 6.528383 2.270974 15.309781 -7.990682 9.032682 17.107119 0.223367 6.588558 2.331958 0.644040 0.439160 0.575880 18.600812 -11.309150 2.735448 -8.133736 -2.624781 15.028160 8.128885 -8.842909 18.283195 -1.190971 -6.219691 2.191659 0.273530 -0.112490 0.213510 -4.418746 -0.736784 -7.094089 13.887651 -0.640789 16.112811 -7.067246 0.129581 32.986987 3.674867 -5.093583 -13.676078 -14.846818 5.800330 53.648496 1.073620 -0.822960 -22.912120 -23.578309 -32.145560 8.591005 -10.603351 -18.505944 -12.681462 122.403256 -14.545551 -42.756030 -3.660337 2.874783 0.658400 -0.195960 0.299550 0.056450 18.242682 35.042288 14.610840 15.664655 11.784748 -19.320401 -128.761726 13.169315 -55.136051 2.073709 -1.872029 -0.047810 0.252710 -0.088560 -0.215170 
-0.484940 17.248910 -1.253720 -2.046113 -2.655744 -25.292306 -14.911425 13.096218 2.848875 6.871288 2.063338 14.298235 -8.377648 9.218972 17.728313 0.267086 6.564460 2.332646 0.628170 0.427250 0.559770 18.554343 -11.298760 2.754485 -7.933166 -2.639010 14.349873 7.988963 -8.770857 18.547151 -1.170687 -6.115470 2.231816 0.241080 -0.138790 0.203530 -4.328821 -0.973699 -7.217478 13.880213 -1.051051 17.974604 -7.026310 -0.027723 31.975496 3.578186 -5.297712 -13.972300 -15.564169 6.103189 53.396432 1.745770 -0.803650 -22.631940 -23.087479 -31.036388 8.718060 -11.285700 -16.481683 -13.113433 119.704060 -18.341641 -46.248236 -3.650302 2.835376 0.655830 -0.220600 0.309290 0.053250 17.738101 34.052071 14.783816 16.366760 9.542890 -19.408265 -127.298491 17.510752 -60.744552 2.120895 -1.774940 -0.025950 0.221140 -0.099200 -0.207030 
-0.478580 17.271560 -1.301610 -2.194295 -2.346444 -24.797187 -14.959638 13.263359 2.857755 7.019774 1.837126 12.776150 -8.516476 9.264219 18.286205 0.330502 6.439071 2.377350 0.624770 0.457650 0.530600 18.479824 -11.261034 2.756857 -7.428907 -2.583430 13.140349 7.833910 -8.641118 18.981254 -1.136562 -5.977110 2.303769 0.222090 -0.154410 0.189420 -4.151283 -1.273134 -7.296440 13.406167 -1.336777 19.848705 -6.657615 -0.138183 30.402836 3.407172 -5.273094 -13.632292 -15.454287 6.221780 52.143418 2.070230 -0.353710 -21.744520 -21.320552 -28.230193 8.340638 -12.834693 -15.398864 -12.650412 116.302611 -23.066837 -49.768405 -3.611753 2.811402 0.608840 -0.225580 0.312710 0.074810 15.983490 31.370621 14.104690 17.882115 8.376732 -18.503329 -125.480490 22.127043 -65.554548 2.135219 -1.704410 0.017980 0.185910 -0.133710 -0.177330 
-0.479540 17.303350 -1.361040 -2.009251 -2.024050 -24.104892 -15.052959 13.466605 2.889217 6.584843 1.678703 11.060374 -8.382554 9.133316 18.597881 0.359116 6.283559 2.444603 0.601730 0.448370 0.508060 18.363384 -11.189439 2.727788 -7.019057 -2.352879 11.492795 7.589974 -8.469363 19.594969 -1.078545 -5.800818 2.382678 0.192340 -0.144970 0.184720 -3.852922 -1.700676 -7.362920 11.963043 -1.349553 21.981811 -5.822151 0.103606 28.659284 3.160007 -5.170305 -13.036744 -15.050648 5.841786 50.418128 1.783280 -0.113450 -21.077360 -19.011333 -24.612319 7.601458 -14.660009 -14.986421 -11.546704 112.861642 -28.598830 -53.714840 -3.578348 2.750158 0.573270 -0.215840 0.307300 0.088440 13.808000 28.113513 13.075987 19.524788 7.747172 -17.441963 -123.132007 27.102764 -69.537474 2.139274 -1.616794 0.038260 0.171400 -0.149740 -0.155260 
